<?xml version="1.0" encoding="UTF-8"?>
<svg width="51px" height="50px" viewBox="0 0 51 50" version="1.1" xmlns="http://www.w3.org/2000/svg" xmlns:xlink="http://www.w3.org/1999/xlink">
    <!-- Generator: Sketch 42 (36781) - http://www.bohemiancoding.com/sketch -->
    <title>Twitter</title>
    <desc>Created with Sketch.</desc>
    <defs></defs>
    <g id="Page-1" stroke="none" stroke-width="1" fill="none" fill-rule="evenodd">
        <g id="Desktop-HD" transform="translate(-693.000000, -912.000000)">
            <g id="Socials" transform="translate(606.000000, 912.000000)">
                <g id="Twitter" transform="translate(88.000000, 1.000000)">
                    <rect id="TwitterBG" fill="#16B9ED" x="-0.443708609" y="-0.0157480315" width="49.6688742" height="49.015748" rx="3.78289474"></rect>
                    <path d="M42.4088003,17.7849073 C41.7646838,31.6124754 30.2007857,42.6279528 16.0298013,42.6279528 C10.698334,42.6279528 5.73588587,41.0687709 1.58512881,38.3872581 C2.41195767,38.4902477 3.25438694,38.5433071 4.10927152,38.5433071 C15.1045899,38.5433071 24.0394899,29.7659631 24.222309,18.8692963 C23.9020776,17.9415714 23.7284768,16.947802 23.7284768,15.9143701 C23.7284768,10.8160641 27.9536039,6.68307087 33.1655629,6.68307087 C38.3775219,6.68307087 42.602649,10.8160641 42.602649,15.9143701 C42.602649,16.5552323 42.5358888,17.1808419 42.4088003,17.7849073 Z" id="Oval-1" fill="#FFFFFF"></path>
                    <path d="M27.6466556,8.86702615 C29.3488358,11.8541474 32.591254,13.8720472 36.3112583,13.8720472 C40.7805253,13.8720472 44.5604461,10.9594172 45.8082572,6.95268889 C42.51011,8.85843214 38.6707453,9.9507874 34.5728477,9.9507874 C32.1547343,9.9507874 29.8266426,9.57042726 27.6466556,8.86702615 Z" id="beak" fill="#FFFFFF"></path>
                    <path d="M27.6885465,13.3115511 C29.9023845,15.4761103 32.9486182,16.8129921 36.3112583,16.8129921 C40.8557277,16.8129921 44.8222998,14.3712566 46.9373269,10.7446852 C44.6957763,11.7054965 42.2221839,12.238189 39.6225166,12.238189 C36.8820417,12.238189 34.2816689,11.6462286 31.9455334,10.5848106 C30.8429289,11.9177388 29.3652096,12.8892868 27.6885465,13.3115511 Z" id="beak-copy" fill="#FFFFFF"></path>
                    <path d="M5.32422476,7.9529116 C4.49970692,9.32821135 4.02649007,10.9328962 4.02649007,12.6466535 C4.02649007,17.7449596 8.21455465,21.8779528 13.3807947,21.8779528 C16.7278918,21.8779528 19.6644028,20.1431418 21.3174142,17.5349551 C14.757063,16.5765803 9.05568361,13.0171191 5.32422476,7.9529116 Z" id="Oval-6" fill="#FFFFFF"></path>
                    <path d="M16.0281345,16.1402666 C14.3501471,18.6148025 11.492052,20.2440945 8.24834437,20.2440945 C6.73048113,20.2440945 5.29705491,19.8873307 4.02947316,19.25414 C4.15604389,24.2436418 8.29431722,28.25 13.3807947,28.25 C15.4571987,28.25 17.3755903,27.5823648 18.9275674,26.4527559 L32.0066225,26.4527559 L32.0066225,16.7418888 C29.7559884,17.4253882 27.3652414,17.7933071 24.8874172,17.7933071 C21.7600662,17.7933071 18.771428,17.207217 16.0281345,16.1402666 Z" id="Path" fill="#FFFFFF"></path>
                    <path d="M7.17734701,28.0158529 C8.26900153,31.9190565 11.8929833,34.7854331 16.1953642,34.7854331 C21.3616043,34.7854331 25.5496689,30.6524399 25.5496689,25.5541339 C25.5496689,22.0124326 23.52858,18.936575 20.562491,17.3884996 C20.5759515,17.6034229 20.5827815,17.8201172 20.5827815,18.0383858 C20.5827815,23.7683404 15.8758416,28.4133858 10.0695364,28.4133858 C9.06646317,28.4133858 8.09620002,28.2747564 7.17734701,28.0158529 Z" id="Path" fill="#FFFFFF"></path>
                </g>
            </g>
        </g>
    </g>
</svg>